<svg width="451" height="138" viewBox="0 0 451 138" fill="none" xmlns="http://www.w3.org/2000/svg">
<path d="M33.5097 64.6258C14.0953 64.6258 0.5319 51.2397 0.5319 32.3572C0.5319 13.3861 14.3613 0 33.8643 0C45.832 0 55.2289 4.9644 60.9025 14.0953L50.7964 19.9462C46.8072 13.7408 40.779 10.4607 33.5984 10.4607C21.8079 10.4607 13.4748 19.3257 13.4748 32.3572C13.4748 45.3888 21.8079 54.2538 33.687 54.2538C43.3498 54.2538 50.3532 48.1369 52.3035 38.3854H31.3821V28.9885H65.4237V32.2686C65.4237 51.5943 52.5695 64.6258 33.5097 64.6258Z" fill="white"/>
<path d="M84.7155 63.3847H71.152V1.32975H98.8995C116.629 1.32975 125.849 8.77635 125.849 22.6057C125.849 31.648 121.948 37.9422 114.236 41.3109L128.509 63.3847H113.261L101.293 43.8817C99.9633 43.9704 98.7222 43.9704 97.3924 43.9704H84.7155V63.3847ZM84.7155 11.1699V34.3962H98.4562C108.296 34.3962 113.261 30.4069 113.261 22.6944C113.261 14.9818 108.385 11.1699 98.4562 11.1699H84.7155Z" fill="white"/>
<path d="M134.118 1.32975H181.634V12.0564H147.238V26.4177H177.379V36.2578H147.238V52.2148H182.964V63.3847H134.118V1.32975Z" fill="white"/>
<path d="M188.859 1.32975H236.376V12.0564H201.979V26.4177H232.12V36.2578H201.979V52.2148H237.705V63.3847H188.859V1.32975Z" fill="white"/>
<path d="M256.898 63.3847H243.6V1.32975H260.089L293.067 48.9348V1.32975H306.365V63.3847H289.876L256.898 15.7797V63.3847Z" fill="white"/>
<path d="M0 126.966L6.29415 117.304C14.3613 123.155 22.3398 126.612 30.5842 126.612C37.9422 126.612 42.3747 123.864 42.3747 119.343C42.3747 116.24 40.2471 113.846 35.1054 111.985C23.5809 107.818 2.4822 105.159 2.4822 89.5562C2.4822 79.2728 11.6131 72.89 26.1517 72.89C36.2579 72.89 45.9207 75.9927 54.2538 81.6663L48.2256 90.7086C41.1336 86.4534 34.0416 83.7939 26.8609 83.7939C20.1236 83.7939 16.0457 86.0988 16.0457 89.6448C16.0457 92.393 18.5278 94.5206 23.5809 96.2936C35.0168 100.106 56.1154 102.854 56.1154 119.077C56.1154 130.335 46.1866 137.604 30.4069 137.604C18.9711 137.604 9.2196 133.793 0 126.966Z" fill="white"/>
<path d="M75.277 136.275H61.8022V74.2197H75.277V106.754L104.354 74.2197H120.311L94.0708 103.297L122.793 136.275H105.861L85.2058 112.605L75.277 123.42V136.275Z" fill="white"/>
<path d="M125.547 136.275V74.2197H139.997V136.275H125.547Z" fill="white"/>
<path d="M151.2 136.275V74.2197H165.03V123.598H198.628V136.275H151.2Z" fill="white"/>
<path d="M202.306 136.275V74.2197H216.135V123.598H249.733V136.275H202.306Z" fill="white"/>
<path d="M257.011 126.967L263.305 117.304C271.373 123.155 279.351 126.612 287.596 126.612C294.953 126.612 299.386 123.864 299.386 119.343C299.386 116.24 297.258 113.846 292.117 111.985C280.592 107.818 259.493 105.159 259.493 89.5563C259.493 79.2729 268.624 72.8901 283.163 72.8901C293.269 72.8901 302.932 75.9929 311.265 81.6665L305.237 90.7088C298.145 86.4536 291.053 83.7941 283.872 83.7941C277.135 83.7941 273.057 86.0989 273.057 89.645C273.057 92.3931 275.539 94.5207 280.592 96.2937C292.028 100.106 313.127 102.854 313.127 119.077C313.127 130.335 303.198 137.605 287.418 137.605C275.982 137.605 266.231 133.793 257.011 126.967Z" fill="white"/>
<path d="M313.1 136.275L344.159 105.083L313.1 73.8916H344.159L375.217 105.083L344.159 136.275H313.1Z" fill="white"/>
<path d="M350.992 136.275L382.05 105.083L350.992 73.8916H382.05L413.109 105.083L382.05 136.275H350.992Z" fill="white"/>
<path d="M388.883 136.275L419.941 105.083L388.883 73.8916H419.941L451 105.083L419.941 136.275H388.883Z" fill="white"/>
</svg>
